Patient4_TMGait_0pt5_01_left_22_EMG.mot
version=1
nRows=16
nColumns=33
inDegrees=no
endheader
time	1LAddLong	2LGlutMax	3LGlutMed	4LIliopsoas	5LSemiMemb	6LBicFemLong	7LRecFem	8LVastMed	9LVastLat	10LGasMed	11LTibAnt	12lTibPost	13LPeroneusLong	14LSol	15LExtDigLong	16LFlexDigLong	17RAddLong	18RGlutMax	19RGlutMed	20RIliopsoas	21RSemiMemb	22RBicFemLong	23RRecFem	24RVastMed	25RVastLat	26RGasMed	27RTibAnt	28RTibPost	29RPeroneusLong	30RSol	31RExtDigLong	32RFlexDigLong
29.42	-0.001221	0.048981	-0.071106	0.001526	-0.001068	0.026703	-0.014954	-0.001984	0.065002	0.005341	-0.036926	-0.004883	0.025177	-0.015869	-0.018005	0.004425	-0.082245	-0.12894	-0.29114	0.005646	-0.37415	0.13153	0.087585	-0.048523	0.090179	0.013123	-0.031738	0.000153	0.02243	-0.32379	-0.000458	-0.011444
29.421	0.003204	0.03418	-0.068512	0.007629	0.005798	0.018616	-0.005646	0.004272	0.079803	0.011902	-0.013733	-0.005035	-0.007324	0.011902	-0.002747	-0.006866	-0.055542	-0.18387	-0.31708	0.007629	-0.10254	-0.000916	0.12192	-0.05249	0.073547	0.034332	-0.030823	0.004425	0.10346	-0.20355	-0.002747	-0.014038
29.422	0.007477	0.018005	-0.064087	0.003662	-0.000305	0.046844	0.007782	0.004883	0.093231	0.006714	0.007782	0.016022	0.001678	-0.010529	-0.002747	0.005951	-0.020905	-0.25192	-0.34927	-0.003967	-0.028076	-0.02182	0.20172	-0.089264	0.048523	0.017242	0.029755	0.000763	0.060425	-0.018463	0.002289	-0.013275
29.423	0.01236	0.017242	-0.081635	-0.007324	0.004578	0.034943	-0.001678	-0.002594	0.11108	0.019379	0.006561	-0.010834	0.033417	-0.055084	0.005493	-0.006256	0.02121	-0.17685	-0.25604	-0.016327	-0.068359	0.031281	0.17975	-0.13336	0.036774	0.032959	0.10635	-0.006409	0.051117	0.21912	0.000458	-0.014343
29.424	0.008392	0.036469	-0.084076	0.006409	0.012665	0.007935	-0.018158	0.007477	0.13412	0.01358	0.00885	0.006561	0.031433	-0.031433	-0.00061	0.001678	0.048523	-0.018005	-0.29709	0.014954	-0.21683	-0.02121	0.16754	-0.16327	-0.001221	-0.073853	0.19226	-0.005493	-0.034027	0.16541	-0.00061	-0.021667
29.425	0.012054	0.041504	-0.084686	0.009308	0.005951	0.019531	-0.017395	-0.000458	0.14771	-0.00351	0.022888	-0.008698	0.037994	-0.02533	0.073853	-0.000763	0.06897	0.036774	-0.009155	0.013123	-0.24704	-0.14435	0.14862	-0.12192	0.057678	-0.093079	0.082092	-0.006256	-0.025024	0.063477	-0.005188	-0.014648
29.426	0.009003	0.044708	-0.060883	0.005646	0.00946	-0.001526	-0.010834	0.000305	0.15198	-0.002136	0.028992	-0.000305	0.051117	0.001831	0.007172	0.005035	0.042419	0.13184	0.1059	0.062256	0.024261	-0.24216	0.12222	-0.038605	0.11887	-0.065308	-0.001373	-0.001221	-0.055237	0.042267	0.003815	-0.016327
29.427	0.009613	0.035553	-0.075531	0.007629	0.00824	-0.019226	-0.010529	0.00824	0.18204	-0.023651	0.030823	0.001221	0.060883	-0.008545	-0.038757	0.004272	0.001373	0.13153	0.34439	0.063019	0.21484	-0.1088	0.1973	0.010376	0.095367	-0.061646	0.11322	0.000916	-0.13519	0.17441	-0.002747	-0.010834
29.428	0.014801	0.0383	-0.0737	0.00473	0.006409	-0.017548	-0.016937	-0.002899	0.18494	0.003815	0.011597	-0.000458	0.070496	0.010834	-0.046997	-0.001221	-0.003815	0.059357	1.0033	0.045166	-0.32715	0.067902	0.25848	0.055237	0.000763	-0.018768	0.31403	-0.000153	-0.098572	0.38467	-0.001221	-0.01358
29.429	0.015106	0.026093	-0.054779	0.015259	0.008545	-0.014801	-0.009613	0.001526	0.2034	-0.014648	-0.026703	-0.004425	0.090637	0.001068	-0.052795	-0.00061	-0.009003	0.019989	0.76889	0.041809	-0.6459	0.12924	0.27802	0.065308	-0.044403	-0.021057	0.45502	-0.007172	-0.033417	0.39459	-0.00473	-0.009003
29.43	0.008392	0.06073	-0.04303	0.00885	-0.00473	-0.012665	-0.022125	0.00412	0.20584	-0.010376	-0.015869	-0.006866	0.06897	-0.023499	-0.045319	-0.005646	-0.013885	-0.045013	0.24643	0.022736	-0.39475	-0.084686	0.29587	0.12772	-0.056152	-0.045471	0.45975	-0.011292	0.050049	0.28381	-0.006561	-0.006561
29.431	0.012512	0.091095	-0.045624	0.003815	0.003662	-0.025787	-0.012207	-0.002136	0.20828	-0.023956	0.010223	-0.005035	0.051727	-0.009613	-0.022888	0.003357	0	-0.024567	0.35446	0.011292	0.28992	-0.10422	0.45685	-0.081024	-0.10193	-0.06134	0.38895	-0.009766	0.12421	0.026245	-0.001221	-0.006409
29.432	0.010529	0.080261	-0.057678	0.014954	0.001831	-0.029907	-0.021362	-0.004425	0.21423	-0.015869	0.073853	-0.000763	0.036926	0.030975	0.006561	-0.003967	-0.007782	-0.097351	0.096588	-0.0177	0.46341	-0.14801	0.3862	-0.24063	-0.11871	-0.072174	-0.1915	-0.007782	-0.011597	-0.30395	-0.000458	-0.003204
29.433	0.002594	0.05127	-0.061646	0.023193	0.00473	-0.021973	-0.031891	0.006866	0.21469	-0.028534	0.026398	-0.002136	0.035858	0.027618	-0.004272	0.014954	-0.035248	-0.057678	0.2887	-0.05661	0.30518	-0.012207	0.036469	-0.11551	-0.051422	-0.027771	-0.46051	-0.015869	-0.012512	-0.22553	-0.000916	-0.007629
29.434	0.008698	0.054626	-0.057373	0.009003	0.004578	-0.005035	-0.019379	-0.008545	0.2153	-0.030365	-0.023956	-0.007935	0.049744	0.033722	0.009918	0.00885	-0.051117	-0.11276	0.13718	-0.057526	0.41016	0.046997	-0.31113	-0.043182	0.054169	0.057373	-0.34882	-0.016937	-0.023193	-0.22827	-0.007019	0.00061
29.435	0.012207	0.059814	-0.075684	0.00946	0.001373	-0.018158	-0.024414	-0.010681	0.21194	-0.03006	-0.046082	-0.011292	0.095215	0.03418	0.028992	0.052795	-0.036011	-0.087585	0.71213	-0.037384	0.062256	0.10208	-0.38925	-0.081482	0.18631	0.03479	0.19913	0.013733	-0.23621	-0.030823	-0.00061	-0.011444
